<svg width="50" height="50" viewBox="0 0 50 50" fill="none" xmlns="http://www.w3.org/2000/svg">
<path fill-rule="evenodd" clip-rule="evenodd" d="M0 50L0.781163 47.0485C1.59629 44.0291 2.44538 41.0437 3.22654 38.0243C3.39223 37.5521 3.39223 37.0377 3.22654 36.5655C0.421916 31.339 -0.417787 25.2825 0.859287 19.4914C2.13636 13.7002 5.4459 8.55673 10.1894 4.99102C14.9329 1.42531 20.7972 -0.327195 26.7218 0.0504318C32.6464 0.428059 38.2401 2.91089 42.4914 7.04992C46.7427 11.1889 49.3709 16.7109 49.9008 22.6172C50.4306 28.5236 48.827 34.4243 45.3801 39.2523C41.9332 44.0804 36.8704 47.517 31.1074 48.9407C25.3444 50.3643 19.2616 49.6811 13.959 47.0146C13.4623 46.8538 12.9274 46.8538 12.4307 47.0146C5.70588 48.5073 1.35854 49.7286 0 50ZM5.80778 44.3005C8.28712 43.6559 10.5627 43.0792 12.8382 42.4685C13.1216 42.3825 13.4203 42.3592 13.7136 42.4002C14.0068 42.4412 14.2876 42.5456 14.5364 42.706C18.6687 45.1722 23.5416 46.0977 28.2917 45.3183C32.6575 44.6323 36.6909 42.5741 39.806 39.4426C42.9212 36.3111 44.956 32.2693 45.615 27.904C46.274 23.5388 45.5229 19.0774 43.4708 15.1675C41.4187 11.2577 38.1723 8.10295 34.2031 6.16143C30.2339 4.2199 25.7485 3.59263 21.3982 4.3707C17.0478 5.14877 13.0589 7.29167 10.0108 10.4883C6.96261 13.6849 5.01381 17.7687 4.44735 22.1469C3.88088 26.5251 4.72622 30.9697 6.86065 34.8353C7.2469 35.4065 7.49148 36.0613 7.57416 36.7456C7.65684 37.4299 7.57525 38.1241 7.33614 38.7707C6.72479 40.433 6.48705 42.2989 5.80778 44.3005Z" fill="#005353"/>
<path fill-rule="evenodd" clip-rule="evenodd" d="M30.9873 37.7356C26.4169 37.5467 19.1297 33.2778 14.1437 23.0399C13.2391 21.4021 12.8522 19.4397 13.0509 17.498C13.2497 15.5563 14.0214 13.7596 15.2304 12.4242C15.6547 12.0483 16.1515 11.8032 16.676 11.7109C17.2005 11.6186 17.7362 11.6819 18.2347 11.8953C18.4904 11.8953 18.7461 12.3864 18.874 12.7264C19.5452 14.502 20.1844 16.3153 20.7597 18.1287C21.0793 19.1109 20.504 20.0176 19.3214 21.6043C19.1596 21.8243 19.0704 22.1061 19.0704 22.3976C19.0704 22.6892 19.1596 22.971 19.3214 23.191C21.1466 26.9571 24.0134 29.8654 27.4396 31.4267C27.65 31.5576 27.8941 31.5914 28.1244 31.5216C28.3548 31.4518 28.555 31.2833 28.6861 31.0489C30.5399 28.3666 30.7316 27.5733 31.8822 28.1022C36.6125 30.7844 36.9641 30.8978 36.9961 31.5022C37.026 32.4071 36.8847 33.3084 36.5824 34.1405C36.2801 34.9725 35.8244 35.7143 35.2486 36.3116C34.6728 36.909 33.9914 37.3468 33.2542 37.5932C32.5169 37.8395 31.7425 37.8882 30.9873 37.7356Z" fill="#005353"/>
</svg>
